<mxfile host="65bd71144e">
    <diagram id="codeviz-diagram" name="System Diagram">
        <mxGraphModel dx="1072" dy="475" grid="1" gridSize="10" guides="1" tooltips="1" connect="1" arrows="1" fold="1" page="1" pageScale="1" pageWidth="1169" pageHeight="827" math="0" shadow="0">
            <root>
                <mxCell id="0"/>
                <mxCell id="1" parent="0"/>
                <mxCell id="4341" value="" style="html=1;whiteSpace=wrap;container=1;fillColor=#dae8fc;strokeColor=#6c8ebf;dashed=1;fillOpacity=20;strokeWidth=2;containerType=none;recursiveResize=0;movable=1;resizable=1;autosize=0;dropTarget=0" parent="1" vertex="1">
                    <mxGeometry x="22" y="1347" width="684.4734936887214" height="244.07891561478687" as="geometry"/>
                </mxCell>
                <mxCell id="4349" value="Database&lt;br&gt;MySQL, etc." style="rounded=1;whiteSpace=wrap;html=1;fillColor=#f5f5f5" parent="4341" vertex="1">
                    <mxGeometry x="436.3156624591476" y="120" width="168.1578312295738" height="84.0789156147869" as="geometry"/>
                </mxCell>
                <mxCell id="4350" value="Weather APIs&lt;br&gt;HTTP APIs" style="rounded=1;whiteSpace=wrap;html=1;fillColor=#f5f5f5" parent="4341" vertex="1">
                    <mxGeometry x="238.1578312295738" y="120" width="168.1578312295738" height="84.0789156147869" as="geometry"/>
                </mxCell>
                <mxCell id="4351" value="Mail Services&lt;br&gt;SMTP, Mailgun, etc." style="rounded=1;whiteSpace=wrap;html=1;fillColor=#f5f5f5" parent="4341" vertex="1">
                    <mxGeometry x="40" y="120" width="168.1578312295738" height="84.0789156147869" as="geometry"/>
                </mxCell>
                <mxCell id="4341_label" value="External Systems" style="edgeLabel;html=1;align=center;verticalAlign=middle;resizable=0;labelBackgroundColor=white;spacing=5" parent="1" vertex="1">
                    <mxGeometry x="30" y="1355" width="608.4734936887214" height="24" as="geometry"/>
                </mxCell>
                <mxCell id="4342" value="" style="html=1;whiteSpace=wrap;container=1;fillColor=#dae8fc;strokeColor=#6c8ebf;dashed=1;fillOpacity=20;strokeWidth=2;containerType=none;recursiveResize=0;movable=1;resizable=1;autosize=0;dropTarget=0" parent="1" vertex="1">
                    <mxGeometry x="301.2367468443607" y="252" width="486.3156624591476" height="984.0789156147869" as="geometry"/>
                </mxCell>
                <mxCell id="4343" value="Routing&lt;br&gt;PHP" style="rounded=1;whiteSpace=wrap;html=1;fillColor=#f5f5f5" parent="4342" vertex="1">
                    <mxGeometry x="207.11837342218035" y="120" width="168.1578312295738" height="84.0789156147869" as="geometry"/>
                </mxCell>
                <mxCell id="4344" value="Middleware&lt;br&gt;PHP" style="rounded=1;whiteSpace=wrap;html=1;fillColor=#f5f5f5" parent="4342" vertex="1">
                    <mxGeometry x="207.11837342218035" y="305" width="168.1578312295738" height="84.0789156147869" as="geometry"/>
                </mxCell>
                <mxCell id="4345" value="HTTP Controllers&lt;br&gt;PHP" style="rounded=1;whiteSpace=wrap;html=1;fillColor=#f5f5f5" parent="4342" vertex="1">
                    <mxGeometry x="207.11837342218035" y="490" width="168.1578312295738" height="84.0789156147869" as="geometry"/>
                </mxCell>
                <mxCell id="4346" value="Data Models&lt;br&gt;PHP Eloquent" style="rounded=1;whiteSpace=wrap;html=1;fillColor=#f5f5f5" parent="4342" vertex="1">
                    <mxGeometry x="51" y="655" width="168.1578312295738" height="84.0789156147869" as="geometry"/>
                </mxCell>
                <mxCell id="4347" value="Views&lt;br&gt;Blade" style="rounded=1;whiteSpace=wrap;html=1;fillColor=#f5f5f5" parent="4342" vertex="1">
                    <mxGeometry x="249.1578312295738" y="675" width="168.1578312295738" height="84.0789156147869" as="geometry"/>
                </mxCell>
                <mxCell id="4348" value="Frontend Assets&lt;br&gt;JS/CSS" style="rounded=1;whiteSpace=wrap;html=1;fillColor=#f5f5f5" parent="4342" vertex="1">
                    <mxGeometry x="249.1578312295738" y="860" width="168.1578312295738" height="84.0789156147869" as="geometry"/>
                </mxCell>
                <mxCell id="4342_label" value="Web Application&lt;br&gt;Laravel" style="edgeLabel;html=1;align=center;verticalAlign=middle;resizable=0;labelBackgroundColor=white;spacing=5" parent="1" vertex="1">
                    <mxGeometry x="309.2367468443607" y="260" width="410.3156624591476" height="24" as="geometry"/>
                </mxCell>
                <mxCell id="4352" value="User&lt;br&gt;External Actor" style="rounded=1;whiteSpace=wrap;html=1;fillColor=#f5f5f5" parent="1" vertex="1">
                    <mxGeometry x="470.3151202665411" y="10" width="168.1578312295738" height="84.0789156147869" as="geometry"/>
                </mxCell>
                <mxCell id="edge-502" style="edgeStyle=orthogonalEdgeStyle;rounded=1;orthogonalLoop=1;jettySize=auto;html=1;strokeColor=#808080;strokeWidth=2;jumpStyle=arc;jumpSize=10;spacing=15;labelBackgroundColor=white;labelBorderColor=none" parent="1" source="4343" target="4344" edge="1">
                    <mxGeometry relative="1" as="geometry"/>
                </mxCell>
                <mxCell id="edge-502_label" value="applies" style="edgeLabel;html=1;align=center;verticalAlign=middle;resizable=0;points=[];" parent="edge-502" vertex="1" connectable="0">
                    <mxGeometry x="-0.2" y="10" relative="1" as="geometry">
                        <mxPoint as="offset"/>
                    </mxGeometry>
                </mxCell>
                <mxCell id="edge-503" style="edgeStyle=orthogonalEdgeStyle;rounded=1;orthogonalLoop=1;jettySize=auto;html=1;strokeColor=#808080;strokeWidth=2;jumpStyle=arc;jumpSize=10;spacing=15;labelBackgroundColor=white;labelBorderColor=none" parent="1" source="4344" target="4345" edge="1">
                    <mxGeometry relative="1" as="geometry"/>
                </mxCell>
                <mxCell id="edge-503_label" value="routes to" style="edgeLabel;html=1;align=center;verticalAlign=middle;resizable=0;points=[];" parent="edge-503" vertex="1" connectable="0">
                    <mxGeometry x="-0.2" y="10" relative="1" as="geometry">
                        <mxPoint as="offset"/>
                    </mxGeometry>
                </mxCell>
                <mxCell id="edge-504" style="edgeStyle=orthogonalEdgeStyle;rounded=1;orthogonalLoop=1;jettySize=auto;html=1;strokeColor=#808080;strokeWidth=2;jumpStyle=arc;jumpSize=10;spacing=15;labelBackgroundColor=white;labelBorderColor=none" parent="1" source="4345" target="4346" edge="1">
                    <mxGeometry relative="1" as="geometry"/>
                </mxCell>
                <mxCell id="edge-504_label" value="uses" style="edgeLabel;html=1;align=center;verticalAlign=middle;resizable=0;points=[];" parent="edge-504" vertex="1" connectable="0">
                    <mxGeometry x="-0.2" y="10" relative="1" as="geometry">
                        <mxPoint as="offset"/>
                    </mxGeometry>
                </mxCell>
                <mxCell id="edge-505" style="edgeStyle=orthogonalEdgeStyle;rounded=1;orthogonalLoop=1;jettySize=auto;html=1;strokeColor=#808080;strokeWidth=2;jumpStyle=arc;jumpSize=10;spacing=15;labelBackgroundColor=white;labelBorderColor=none" parent="1" source="4345" target="4347" edge="1">
                    <mxGeometry relative="1" as="geometry"/>
                </mxCell>
                <mxCell id="edge-505_label" value="renders" style="edgeLabel;html=1;align=center;verticalAlign=middle;resizable=0;points=[];" parent="edge-505" vertex="1" connectable="0">
                    <mxGeometry x="-0.2" y="10" relative="1" as="geometry">
                        <mxPoint as="offset"/>
                    </mxGeometry>
                </mxCell>
                <mxCell id="edge-506" style="edgeStyle=orthogonalEdgeStyle;rounded=1;orthogonalLoop=1;jettySize=auto;html=1;strokeColor=#808080;strokeWidth=2;jumpStyle=arc;jumpSize=10;spacing=15;labelBackgroundColor=white;labelBorderColor=none" parent="1" source="4345" target="4350" edge="1">
                    <mxGeometry relative="1" as="geometry"/>
                </mxCell>
                <mxCell id="edge-506_label" value="calls" style="edgeLabel;html=1;align=center;verticalAlign=middle;resizable=0;points=[];" parent="edge-506" vertex="1" connectable="0">
                    <mxGeometry x="-0.2" y="10" relative="1" as="geometry">
                        <mxPoint as="offset"/>
                    </mxGeometry>
                </mxCell>
                <mxCell id="edge-507" style="edgeStyle=orthogonalEdgeStyle;rounded=1;orthogonalLoop=1;jettySize=auto;html=1;strokeColor=#808080;strokeWidth=2;jumpStyle=arc;jumpSize=10;spacing=15;labelBackgroundColor=white;labelBorderColor=none" parent="1" source="4345" target="4351" edge="1">
                    <mxGeometry relative="1" as="geometry"/>
                </mxCell>
                <mxCell id="edge-507_label" value="sends email via" style="edgeLabel;html=1;align=center;verticalAlign=middle;resizable=0;points=[];" parent="edge-507" vertex="1" connectable="0">
                    <mxGeometry x="-0.2" y="10" relative="1" as="geometry">
                        <mxPoint as="offset"/>
                    </mxGeometry>
                </mxCell>
                <mxCell id="edge-509" style="edgeStyle=orthogonalEdgeStyle;rounded=1;orthogonalLoop=1;jettySize=auto;html=1;strokeColor=#808080;strokeWidth=2;jumpStyle=arc;jumpSize=10;spacing=15;labelBackgroundColor=white;labelBorderColor=none" parent="1" source="4347" target="4348" edge="1">
                    <mxGeometry relative="1" as="geometry"/>
                </mxCell>
                <mxCell id="edge-509_label" value="references" style="edgeLabel;html=1;align=center;verticalAlign=middle;resizable=0;points=[];" parent="edge-509" vertex="1" connectable="0">
                    <mxGeometry x="-0.2" y="10" relative="1" as="geometry">
                        <mxPoint as="offset"/>
                    </mxGeometry>
                </mxCell>
                <mxCell id="edge-501" style="edgeStyle=orthogonalEdgeStyle;rounded=1;orthogonalLoop=1;jettySize=auto;html=1;strokeColor=#808080;strokeWidth=2;jumpStyle=arc;jumpSize=10;spacing=15;labelBackgroundColor=white;labelBorderColor=none" parent="1" source="4352" target="4343" edge="1">
                    <mxGeometry relative="1" as="geometry"/>
                </mxCell>
                <mxCell id="edge-501_label" value="sends HTTP request" style="edgeLabel;html=1;align=center;verticalAlign=middle;resizable=0;points=[];" parent="edge-501" vertex="1" connectable="0">
                    <mxGeometry x="-0.2" y="10" relative="1" as="geometry">
                        <mxPoint as="offset"/>
                    </mxGeometry>
                </mxCell>
                <mxCell id="edge-508" style="edgeStyle=orthogonalEdgeStyle;rounded=1;orthogonalLoop=1;jettySize=auto;html=1;strokeColor=#808080;strokeWidth=2;jumpStyle=arc;jumpSize=10;spacing=15;labelBackgroundColor=white;labelBorderColor=none" parent="1" source="4346" target="4349" edge="1">
                    <mxGeometry relative="1" as="geometry"/>
                </mxCell>
                <mxCell id="edge-508_label" value="persists to / reads from" style="edgeLabel;html=1;align=center;verticalAlign=middle;resizable=0;points=[];" parent="edge-508" vertex="1" connectable="0">
                    <mxGeometry x="-0.2" y="10" relative="1" as="geometry">
                        <mxPoint as="offset"/>
                    </mxGeometry>
                </mxCell>
            </root>
        </mxGraphModel>
    </diagram>
</mxfile>
